<?xml version="1.0" encoding="UTF-8"?>
<svg id="Ebene_1" xmlns="http://www.w3.org/2000/svg" version="1.1" viewBox="0 0 128 128">
  <!-- Generator: Adobe Illustrator 30.0.0, SVG Export Plug-In . SVG Version: 2.1.1 Build 123)  -->
  <defs>
    <style>
      .st0 {
        fill: none;
      }

      .st1 {
        fill: #3a3841;
      }

      .st2 {
        fill: #1f1e25;
      }

      .st3 {
        fill: #36353d;
      }

      .st4 {
        fill: #d676ac;
      }

      .st5 {
        fill: #16151d;
      }

      .st6 {
        fill: #70707b;
      }

      .st7 {
        fill: #34343b;
      }

      .st8 {
        fill: #5f8ac8;
      }

      .st9 {
        fill: #4a4952;
      }
    </style>
  </defs>
  <path class="st0" d="M50.4,78.5c-9.9.4-19.5,2.7-28.5,6.9L46.1,19.7c.7-2,1.9-3.2,3.4-3.2h29c1.5,0,2.7,1.2,3.4,3.2l24.2,65.7s-11.6-7-28.5-7l-10.6-32.9c-.4-1.7-1.6-2.8-2.9-2.8s-2.5,1.1-2.9,2.7l-10.8,33.1ZM45.1,86.5c-2,6.6-.6,15.8,4.2,20.2,0-.2.1-.5.2-.7.5-2.7,2.9-4.6,5.7-4.5,2.8,0,4.3,1.5,4.7,4.7.2,1.1.2,2.3.2,3.5v.4c0,2.7.7,5.2,2.2,7.4,1.4,2.2,3.4,3.9,5.7,4.9v-.3l-.2-.3c-1.8-5.6-.5-9.5,4.4-12.8l1.5-1c1.1-.7,2.2-1.4,3.2-2.2,3.8-2.6,6.3-6.8,6.8-11.4.3-2,0-4-.6-6l-.8.6-1.6,1c-7,3.2-14.8,4.2-22.4,2.7-5-.7-9.7-2-13.2-6.2Z"/>
  <g>
    <path class="st4" d="M88.3,63h10.5c.1,8,.2,15.9.3,24.1,1-1.9,2.9-2.9,4-4.7,1.7-1.9,3.2-4,5-5.8.7-1,1-1.8,2.2-2.5,3.4-.1,6.8,0,10.2,0q.2.9.3,1.9c-2,2.4-4,4.8-6.2,7.1h-.6c-.2.6-.4,1-.6,1.5q-.5.2-.9.3c-.8,1.6-1.8,3.1-3.1,4.3h-.6c.7,2.4,3.4,4,3.7,6.5h.6c.7,1.1,2.2,2.7,2.2,4h.6c.7,1.2,2.6,3.5,2.5,4.6.3.1.6.2.9.3.9,1.2,1.1,2.6,2.5,3.4v1.9c-3.1,0-6.2,0-9.4,0q-1.7,0-2.4-.3v-.6h-.6c-2.5-4.3-5.5-8.3-8.3-12.4-2.3.6-2,3-2,4.9,0,2.1,0,4.2-.1,6.3q0,1.7-.4,2.1c-3.5,0-6.7.4-10.2-.3v-46.7Z"/>
    <path class="st4" d="M53.9,73.7c5.1-.3,12.6,1.6,14,7.2h.6c1.7,5.1.7,10.9,1,16.2,0,3.8,0,7.6,0,11.4q0,.8-.3,1.1c-3.4,0-6.8,0-10.2,0-.2-1-.4-2-.6-3.1-1.9,1.8-3.8,3.2-6.5,3.4v.6h-5.9v-.6c-3.7,0-5.1-1.8-7.5-4.3-2.7-3.7-2.4-10,.9-13.2,5.3-4.5,12.6-4.3,19.2-4.4-.2-1.7,0-3.5-.9-4.9-3.6-1.7-8.4-1.8-9.9,2.8h-9.3c-.9-8.3,8.2-12.7,15.4-12.1ZM48.4,96.3c-2.5,1.1-1.6,4.6.4,5.9,3.2,1.5,7.4.3,9.4-2.6.8-1.6.4-3.2.4-4.9q-5.3-.2-10.2,1.5Z"/>
    <path class="st6" d="M105.5,18.3c7.9-.8,16.1,4.9,15.2,13.4-.8,9.4-11.7,15.6-17.3,21.7q9,.2,18.2.3v8h-31.5c-.2-8.3.6-7.8,4.3-11.2,3.9-3.6,7.8-7.3,11.7-10.9,3.4-2.9,7.5-8.4,3.3-12.4-4.9-3.5-10.1,0-11.2,5.4h-8c-1.5-9.2,6.9-15.1,15.4-14.4Z"/>
    <path class="st4" d="M6.4,63h37.1v8c-4,2-8.9.3-13.3.3v38.3h-10.8c-.1-12.6-.2-25.3-.3-38.3H6.7c-.1-.1-.2-.2-.3-.3v-8Z"/>
    <path class="st8" d="M6.4,19.1h32.8v7.4c-4,.1-8,.2-12.1.3,0,1,0,2,0,3.1,0,3.4,0,6.7,0,10.1,0,2,0,4.1,0,6.1,0,2,0,3.9,0,5.9,0,.7,0,1.5,0,2.2,0,1,0,2.1,0,3.1,0,.3,0,.6,0,.9,0,.3,0,.6,0,.9,0,.2,0,.5,0,.8q0,.6-.3,1.2h-8.7V26.5H6.4v-7.4Z"/>
    <path class="st8" d="M68.1,29.2c.3,0,.5,0,.8,0,2,0,3.8.3,5.7,1,.2,0,.4.2.7.2,2.9,1.3,5.2,3.7,6.5,6.5.2.9.3,1.6.3,2.5h.6v2.2h-8.3c-.4-.9-.8-1.8-1.2-2.8-.8-1.4-1.7-1.9-3.2-2.3-1.6-.3-3.1-.3-4.6.6-1.7,1.3-2.4,2.8-3,4.9q0,.3-.2.6c-.6,3.3,0,6.7,1.4,9.6,1.4,1.7,2.8,2.4,4.9,2.6,1.8,0,3.2-.8,4.4-2.1q.7-1.1,1.4-3.3h8.3v2.5h-.6q0,.4,0,.7c-.3,1.5-.9,2.9-1.8,4.2q-.5.2-.9.3c0,.2-.2.4-.3.6-.8,1.7-3.1,2.8-4.8,3.4-1,.3-1.7.4-2.7.3v.6h-6.8v-.6c-.3,0-.6,0-.9,0-2.9-.5-5.9-2.2-7.7-4.5-3.3-4.8-3.9-10-3.1-15.8.9-3.9,2.9-7.3,6.2-9.6,2.9-1.6,5.6-2.3,8.9-2.3Z"/>
    <path class="st4" d="M73.4,63h10.5v46.7h-10.5v-46.7Z"/>
    <path class="st8" d="M43.1,29.9c.4,0,.7,0,1.1,0,.4,0,.8,0,1.1,0q.6,0,1.1,0t1.1,0c.3,0,.7,0,1,0q.8,0,1.1.3c0,.9,0,1.9,0,2.8,0,.3,0,.6,0,.9,0,1,0,2,0,3,0,.7,0,1.4,0,2.1,0,1.4,0,2.9,0,4.3,0,1.8,0,3.7,0,5.5,0,1.4,0,2.8,0,4.2,0,.7,0,1.4,0,2,0,1,0,1.9,0,2.9,0,.3,0,.6,0,.9q0,1.9-.4,2.3c-.6,0-1.1,0-1.7,0-.3,0-.7,0-1,0q-.5,0-1.1,0c-.4,0-.7,0-1.1,0-.3,0-.7,0-1,0-.3,0-.6,0-1,0q-.8,0-1.4-.3c0-4,0-8,0-11.9,0-1.8,0-3.7,0-5.5,0-1.8,0-3.6,0-5.3,0-.7,0-1.4,0-2,0-1,0-1.9,0-2.9,0-.3,0-.6,0-.9q0-2.3,2.1-2.3Z"/>
    <path class="st4" d="M73.4,63h10.5v46.7h-10.5v-46.7ZM74.7,63.3c-1,8.9,0,18.1-.4,27.1,0,5.9,0,11.7,0,17.6q0,.8.3,1.4h8.7c-.1-15.2-.2-30.4-.3-46h-8.3Z"/>
    <path class="st4" d="M6.4,70.7c4.3,0,8.5,0,12.7,0q.5,0,.9.3c0,12.8,0,25.5,0,38.3h9.3v-38.3h13.6v.3h-12.7v38.3h-10.8c-.1-12.6-.2-25.3-.3-38.3H6.7l-.3-.6Z"/>
    <path class="st8" d="M45.1,17.5q.6,0,1.2,0c1.3,0,1.9.3,2.9,1.2.5,1,.5,1.7.5,2.9q0,.6,0,1.1c-.2,1.2-.5,1.7-1.4,2.6-1.4.9-2.7,1.2-4.3.9-1.3-.5-2.4-1.2-3.1-2.5-.5-1.4-.6-2.7,0-4,1.1-2,2.1-2.3,4.2-2.2Z"/>
    <path class="st5" d="M92.6,52.1l.6.3c-1.2.8-1.3.7-2.5,2.5-.1,2-.2,4.1-.3,6.2h30.6v-7.1h-18.8c.7-.9,1.4-.7,2.4-.7,5.7.1,11.4.2,17,.4v8h-31.5q0-7.1,2.5-9.6Z"/>
    <path class="st4" d="M67.2,79.6l.6,1.2h.6c1.4,3.6,1,7.9,1,11.7,0,5.6,0,11.1,0,16.7q-.3.2-.6.3c-.6-7.9-.3-15.9-.3-23.8h-.3c0-2.2-.9-4.1-.9-6.2Z"/>
    <path class="st4" d="M98.1,63h.6c.1,8.3.2,16.5.3,25q-.5.2-.9.3v-25.3Z"/>
    <path class="st4" d="M112.5,74c2.6,0,5.3,0,7.9,0q.2.9.3,1.9l-.6.3v-1.2h-9.9v.6c-2.3.9-2.9,3.8-5.3,4.9.9-2,2.8-3.2,3.8-5.2,1.1-1.4,2.1-1.4,3.8-1.4Z"/>
    <path class="st4" d="M57.7,82.7h.6c1.3,1.8.9,3.8.9,5.9-2.5.2-4.9.3-7.4.5-2.2.8-4.4.9-6.8.7,1.1-2.1,10.9-1.5,13.6-1.9-.1-1.8,0-3.6-.9-5.3Z"/>
    <path class="st4" d="M107.4,105.3h.6c1,1.3,1.4,2.5,2.5,3.7,3.4.2,6.8.2,10.2.3v-1.5c.3.1.6.2.9.3v1.9c-3.1,0-6.2,0-9.4,0q-1.7,0-2.4-.3v-.6h-.6c-.6-1.2-1.2-2.4-1.9-3.7Z"/>
    <path class="st4" d="M44.4,90.1c-7.2,3-8.4,9.1-5.3,15.8-3.1-.8-2.4-9.2-1.3-11.6.7-1.6,4.8-5,6.5-4.1Z"/>
    <path class="st4" d="M51.7,73.7c2.2,0,4.4,0,6.6,0v.6c-3.7.2-7.5-.2-11,1.1-.8.2-1.2.1-1.9-.1,2-1.1,4.1-1.7,6.4-1.6Z"/>
    <path class="st4" d="M44.4,75.6l.6.3c-1.1.7-2,2.2-3.4,2.2,0,.8,0,1.7-.3,2.5l-.9.3-.3,1.9h-.9v.9h-.6c.7-3.6,2.9-6,5.9-8Z"/>
    <path class="st8" d="M82.1,39.5h.6v2.2h-8.3c-.1-.5-.2-1-.3-1.5h.6v.9h7.4v-1.5Z"/>
    <path class="st2" d="M111.1,32.4h.3c-.2,5.2-5.1,7.2-8,10.8-.2-.1-.4-.2-.6-.3,3-3.2,7.3-6,8.3-10.5Z"/>
    <path class="st4" d="M42.2,108.7c1.2.4,3.5.2,4.3.9,2.1,0,4.1,0,6.2,0-.3.1-.6.2-.9.3v.6h-5.9v-.6c-1.4,0-2.7-.2-3.7-1.2Z"/>
    <path class="st4" d="M67.2,79.6l.6,1.2h.6c.8,2.1.8,4.3.9,6.5-.2.1-.4.2-.6.3l-.3-1.9h-.3c0-2.2-.9-4.1-.9-6.2Z"/>
    <path class="st4" d="M49.3,88.6c.6,0,1,0,1.6,0v.6c-1.8,1.1-3.9.5-5.9.6,1.1-1.4,2.6-1.3,4.3-1.3Z"/>
    <path class="st4" d="M58.9,104.7h.3c.1,1.5.2,3.1.3,4.6,1.9-.2,3.7-.5,5.6,0v.3h-6.2c-.2-1.4-.8-3.8,0-4.9Z"/>
    <path class="st1" d="M94.4,21.9c-.5,2.3-2.7,3.8-3.7,5.9q-.3-.9,0-1.5,2.5-4.3,3.8-4.3Z"/>
    <path class="st4" d="M58.9,74.1c2.4.5,6.1,1.6,7.1,4-2.1-1.4-4.2-2.6-6.8-2.8l-.3-1.2Z"/>
    <path class="st4" d="M51.5,73.8c-.2.9-1.7,1-2.6,1.3-1.2.3-2.4.8-3.6.3,2.1-1,3.8-1.6,6.2-1.5Z"/>
    <path class="st8" d="M65.4,35.8h4.6c.1.2.2.4.3.6-.2,0-.4,0-.5,0-2.2,0-3.8.3-5.6,1.6v-.9h.6l.6-1.2Z"/>
    <path class="st8" d="M75,49.6c.3,0,.6,0,.9,0,.3,0,.6,0,.9,0,.3,0,.6,0,1,0q.5,0,1,0c.8,0,1.6,0,2.4,0v.3c-2,.1-4.1.2-6.2.3-.4.8-.8,1.6-1.2,2.5h-.6c.1-.5.3-.9.4-1.4,0-.3.2-.5.2-.8q.3-.9,1.2-1Z"/>
    <path class="st7" d="M106.8,25.3l.6.6c-1.7-.2-3.3,0-5,.7q-.6.2-1.5.2c.1-.3.2-.6.3-.9,1.7-.7,3.8-.9,5.6-.6Z"/>
    <path class="st4" d="M118.8,76.2l1.2.3c-.8,1.3-1.4,2.1-2.8,2.8-.1-.4-.2-.8-.3-1.2h.9v-.9h.9v-.9Z"/>
    <path class="st4" d="M6.4,63l1.2.3c-.2.2-.4.4-.6.6-.3,2.2-.2,4.6-.3,6.8h-.3v-7.7Z"/>
    <path class="st4" d="M67.2,79.6l.6,1.2h.6c.2.8.4,1.6.6,2.5h-.6v-.6h-.6c-.4-1.1-.6-1.9-.6-3.1Z"/>
    <path class="st8" d="M46.5,25h1.5c-1,1-1.3,1.2-2.8,1.3-1.1,0-1.2,0-2.2-.7h3.4v-.6Z"/>
    <path class="st4" d="M101.5,96.9h.6c.8.9,1.1,1.9,2.2,2.5v1.5c-1.3-1.2-2.1-2.4-2.8-4Z"/>
    <path class="st3" d="M111.1,32.4h.3c-.2,1.6-.5,2.9-1.2,4.3-.3.1-.6.2-.9.3.2-1.7,1.7-2.9,1.9-4.6Z"/>
    <path class="st4" d="M59.2,104.7h.6c.1,1.5.2,3.1.3,4.6h-.6c-.5-1.5-.3-3.1-.3-4.6Z"/>
    <path class="st4" d="M49.3,94.8c.5.1,1,.2,1.5.3-.7,1.3-2.5,1.3-3.7,2.2.4-1.2.8-1.3,1.9-1.9l.3-.6Z"/>
    <path class="st4" d="M114.5,98.8l.6.3v.6h.6c.6.7,1.1,1.6,1.5,2.5l-.3.6c-.9-1.1-1-2-2.5-2.8v-1.2Z"/>
    <path class="st4" d="M113.9,83.7c-.7,1.1-1.3,1.5-2.5,1.9q0-.7.3-1.5t2.2-.3Z"/>
    <path class="st8" d="M41.3,19.1q.3.6.1,1.8c-.2,1.1,0,1.8.5,2.8-.2.2-.4.4-.6.6-.7-1.4-.7-2.5-.6-4q.3-.8.6-1.2Z"/>
    <path class="st9" d="M92,24.6l.6.6c-.6.8-1.2,1.6-1.9,2.5-.6-1.1.3-2.7,1.2-3.1Z"/>
    <path class="st4" d="M48.7,88.6v.6q-2.5.7-3.7.3c1.3-.8,2.2-.9,3.7-.9Z"/>
    <path class="st4" d="M42.8,77.2c.3.2.6.4.9.6-.8,1-1.6,1.2-2.8,1.5.4-1,.9-1.5,1.9-2.2Z"/>
    <path class="st4" d="M58.3,100c.3.1.6.2.9.3-.6,1.3-1.7,1.6-3.1,1.9l2.2-2.2Z"/>
    <path class="st8" d="M53.6,51.2l.3.6q.6.2,1.2.3c-.1.2-.2.4-.3.6,0,.5,0,1,0,1.5-.9-1-1.1-1.8-1.2-3.1Z"/>
    <path class="st4" d="M38.5,94.2h.6q-.6,2.1-.9,2.8h-.6c.2-1,.4-1.9.9-2.8Z"/>
    <path class="st4" d="M38.5,104.7h.6v.6c.5-.2,1-.4,1.5-.6-.2.6-.4,1.2-.6,1.9-.1-.2-.2-.4-.3-.6-.3-.1-.6-.2-.9-.3-.1-.3-.2-.6-.3-.9Z"/>
    <path class="st8" d="M64.8,29.9c-1,.4-2,.8-3.1,1.2-.2-.2-.4-.4-.6-.6.4-.2.8-.3,1.2-.5.2,0,.4-.2.7-.3q.7-.2,1.9.1Z"/>
    <path class="st8" d="M48.7,23.4v1.5q-.3.2-.6.3v-.6h-.6v-.9q.6-.3,1.2-.3Z"/>
  </g>
</svg>